<?xml version="1.0" encoding="utf-8"?>
<!-- Generator: Adobe Illustrator 25.2.3, SVG Export Plug-In . SVG Version: 6.00 Build 0)  -->
<svg version="1.1" id="Livello_1" xmlns="http://www.w3.org/2000/svg" xmlns:xlink="http://www.w3.org/1999/xlink" x="0px" y="0px"
	 viewBox="0 0 595.3 841.9" style="enable-background:new 0 0 595.3 841.9;" xml:space="preserve">
<style type="text/css">
	.st0{fill:#FFFFFF;stroke:#000000;stroke-miterlimit:10;}
	.st1{font-family:'MyriadPro-Regular';}
	.st2{font-size:12px;}
	.st3{fill:#FFFFFF;}
	.st4{fill:none;stroke:#000000;stroke-miterlimit:10;}
</style>
<rect x="85.8" y="137.7" class="st0" width="174.9" height="215.3"/>
<text transform="matrix(1 0 0 1 121.8178 153.3973)" class="st1 st2">OMOGENIZZAZIONE</text>
<rect x="535.9" y="364" class="st0" width="82.2" height="50"/>
<text transform="matrix(1 0 0 1 566.3392 393.1755)" class="st1 st2">Com</text>
<rect x="132.1" y="430.8" class="st0" width="82.2" height="50"/>
<text transform="matrix(1 0 0 1 143.0632 460.0884)" class="st1 st2">GEOMETRIA</text>
<rect x="101.5" y="178.2" class="st0" width="143.4" height="29.1"/>
<rect x="101.5" y="238" class="st0" width="143.4" height="29.1"/>
<rect x="101.5" y="295.7" class="st0" width="143.4" height="29.1"/>
<text transform="matrix(1 0 0 1 103.3321 198.9956)" class="st1 st2">CONDIZIONI AL CONTORNO</text>
<rect x="329.3" y="207.2" class="st0" width="145.2" height="50"/>
<text transform="matrix(1 0 0 1 359.699 236.3773)" class="st1 st2">CONVERGENZA</text>
<rect x="132.1" y="505.6" class="st0" width="82.2" height="50"/>
<text transform="matrix(1 0 0 1 145.1876 534.7637)" class="st1 st2">MATERIALE</text>
<text transform="matrix(1 0 0 1 448.1388 491.1517)" class="st1 st2">Com</text>
<path class="st0" d="M194.3-45.4h-42.2c-6.5,0-11.7-5.2-11.7-11.7v-9.1c0-6.5,5.2-11.7,11.7-11.7h42.2c6.5,0,11.7,5.2,11.7,11.7v9.1
	C206-50.7,200.7-45.4,194.3-45.4z"/>
<text transform="matrix(1 0 0 1 163.589 -57.0859)" class="st1 st2">RVE</text>
<rect x="104.1" y="23.8" class="st0" width="138.3" height="32.5"/>
<text transform="matrix(1 0 0 1 130.7999 44.5692)" class="st1 st2">IDEALIZZAZIONE</text>
<g>
	<polyline class="st3" points="391.8,457.5 391.8,528.7 518.6,528.7 	"/>
	<g>
		<polyline class="st4" points="391.8,465.6 391.8,528.7 510.4,528.7 		"/>
		<g>
			<path d="M391.8,467.4l3.6,2.2l0.1-0.1l-2.3-5.9c-0.5-2-0.9-4.1-1.4-6.1c-0.5,2-0.9,4.1-1.4,6.1l-2.3,5.9l0.1,0.1L391.8,467.4z"/>
		</g>
		<g>
			<path d="M508.6,528.7l-2.2-3.6l0.1-0.1l5.9,2.3c2,0.5,4.1,0.9,6.1,1.4c-2,0.5-4.1,0.9-6.1,1.4l-5.9,2.3l-0.1-0.1L508.6,528.7z"/>
		</g>
	</g>
</g>
<text transform="matrix(1 0 0 1 131.8676 257.5971)" class="st1 st2">SOLUZIONE FEM</text>
<text transform="matrix(1 0 0 1 130.5837 314.8281)" class="st1 st2">AVERAGE STRESS</text>
<g>
	<line class="st3" x1="173.2" y1="56.2" x2="173.2" y2="130.1"/>
	<g>
		<line class="st4" x1="173.2" y1="56.2" x2="173.2" y2="122"/>
		<g>
			<path d="M173.2,120.2l3.6-2.2l0.1,0.1l-2.3,5.9c-0.5,2-0.9,4.1-1.4,6.1c-0.5-2-0.9-4.1-1.4-6.1l-2.3-5.9l0.1-0.1L173.2,120.2z"/>
		</g>
	</g>
</g>
<g>
	<g>
		<polyline class="st4" points="103.8,40 57.7,40 57.7,534.8 109.8,534.8 		"/>
		<g>
			<path d="M108,534.8l-2.2-3.6l0.1-0.1l5.9,2.3c2,0.5,4.1,0.9,6.1,1.4c-2,0.5-4.1,0.9-6.1,1.4l-5.9,2.3l-0.1-0.1L108,534.8z"/>
		</g>
	</g>
</g>
<g>
	<line class="st3" x1="173.2" y1="-35.9" x2="173.2" y2="22.3"/>
	<g>
		<line class="st4" x1="173.2" y1="-35.9" x2="173.2" y2="14.1"/>
		<g>
			<path d="M173.2,12.3l3.6-2.2l0.1,0.1l-2.3,5.9c-0.5,2-0.9,4.1-1.4,6.1c-0.5-2-0.9-4.1-1.4-6.1l-2.3-5.9l0.1-0.1L173.2,12.3z"/>
		</g>
	</g>
</g>
<g>
	<line class="st3" x1="173.2" y1="211.5" x2="173.2" y2="232.2"/>
	<g>
		<line class="st4" x1="173.2" y1="211.5" x2="173.2" y2="224.1"/>
		<g>
			<path d="M173.2,222.3l3.6-2.2l0.1,0.1l-2.3,5.9c-0.5,2-0.9,4.1-1.4,6.1c-0.5-2-0.9-4.1-1.4-6.1l-2.3-5.9l0.1-0.1L173.2,222.3z"/>
		</g>
	</g>
</g>
<g>
	<line class="st3" x1="263" y1="232.2" x2="329.3" y2="232.2"/>
	<g>
		<line class="st4" x1="263" y1="232.2" x2="321.1" y2="232.2"/>
		<g>
			<path d="M319.3,232.2l-2.2-3.6l0.1-0.1l5.9,2.3c2,0.5,4.1,0.9,6.1,1.4c-2,0.5-4.1,0.9-6.1,1.4l-5.9,2.3l-0.1-0.1L319.3,232.2z"/>
		</g>
	</g>
</g>
<g>
	<line class="st3" x1="57.7" y1="455.8" x2="117.9" y2="455.8"/>
	<g>
		<line class="st4" x1="57.7" y1="455.8" x2="109.8" y2="455.8"/>
		<g>
			<path d="M108,455.8l-2.2-3.6l0.1-0.1l5.9,2.3c2,0.5,4.1,0.9,6.1,1.4c-2,0.5-4.1,0.9-6.1,1.4l-5.9,2.3l-0.1-0.1L108,455.8z"/>
		</g>
	</g>
</g>
<g>
	<line class="st3" x1="229.5" y1="497.5" x2="365.8" y2="497.5"/>
	<g>
		<line class="st4" x1="229.5" y1="497.5" x2="357.6" y2="497.5"/>
		<g>
			<path d="M355.8,497.5l-2.2-3.6l0.1-0.1l5.9,2.3c2,0.5,4.1,0.9,6.1,1.4c-2,0.5-4.1,0.9-6.1,1.4l-5.9,2.3l-0.1-0.1L355.8,497.5z"/>
		</g>
	</g>
</g>
<g>
	<line class="st3" x1="173.2" y1="271.1" x2="173.2" y2="291.8"/>
	<g>
		<line class="st4" x1="173.2" y1="271.1" x2="173.2" y2="283.6"/>
		<g>
			<path d="M173.2,281.8l3.6-2.2l0.1,0.1l-2.3,5.9c-0.5,2-0.9,4.1-1.4,6.1c-0.5-2-0.9-4.1-1.4-6.1l-2.3-5.9l0.1-0.1L173.2,281.8z"/>
		</g>
	</g>
</g>
<g>
	<g>
		<polyline class="st4" points="174.3,332 174.3,389 521.4,389 		"/>
		<g>
			<path d="M519.6,389l-2.2-3.6l0.1-0.1l5.9,2.3c2,0.5,4.1,0.9,6.1,1.4c-2,0.5-4.1,0.9-6.1,1.4l-5.9,2.3l-0.1-0.1L519.6,389z"/>
		</g>
	</g>
</g>
<path d="M174,400.3"/>
<polyline class="st0" points="219.3,460.2 230.5,460.2 230.5,534.8 219.3,534.8 "/>
<path class="st0" d="M316.2,460.2"/>
</svg>
