<svg xmlns="http://www.w3.org/2000/svg" viewBox="0 0 262.94 199.96"><defs><style>.cls-1,.cls-2,.cls-5{fill:none;stroke-miterlimit:3.25;}.cls-1{stroke:#a67c52;stroke-linecap:square;stroke-width:1.15px;}.cls-2{stroke:#000;}.cls-2,.cls-5{stroke-width:0.36px;}.cls-3{font-size:6.48px;font-family:ArialMT, Arial;}.cls-4{fill:#a67c52;}.cls-5{stroke:#8b2c08;}.cls-6{fill:#8b2c08;}</style></defs><g id="Livello_2" data-name="Livello 2"><g id="Livello_1-2" data-name="Livello 1"><polyline class="cls-1" points="24.44 17.23 24.6 15.04 78.85 157.55 107.15 174.08 170.3 182.29 170.31 182.29 171.59 183.26 189.97 187.18 251.44 188.8 254.03 188.88"/><line class="cls-2" x1="37.78" y1="188.88" x2="37.78" y2="186.39"/><text class="cls-3" transform="translate(30.25 197.75)">$5\cdot 10^3$</text><line class="cls-2" x1="61.18" y1="188.88" x2="61.18" y2="186.39"/><line class="cls-2" x1="115.52" y1="188.88" x2="115.52" y2="186.39"/><line class="cls-2" x1="138.93" y1="188.88" x2="138.93" y2="186.39"/><line class="cls-2" x1="193.27" y1="188.88" x2="193.27" y2="186.39"/><line class="cls-2" x1="216.67" y1="188.88" x2="216.67" y2="186.39"/><line class="cls-2" x1="20.53" y1="188.88" x2="20.53" y2="187.63"/><line class="cls-2" x1="30.25" y1="188.88" x2="30.25" y2="187.63"/><line class="cls-2" x1="43.93" y1="188.88" x2="43.93" y2="187.63"/><line class="cls-2" x1="49.14" y1="188.88" x2="49.14" y2="187.63"/><line class="cls-2" x1="53.65" y1="188.88" x2="53.65" y2="187.63"/><line class="cls-2" x1="57.63" y1="188.88" x2="57.63" y2="187.63"/><line class="cls-2" x1="84.59" y1="188.88" x2="84.59" y2="187.63"/><line class="cls-2" x1="98.27" y1="188.88" x2="98.27" y2="187.63"/><line class="cls-2" x1="107.99" y1="188.88" x2="107.99" y2="187.63"/><line class="cls-2" x1="121.68" y1="188.88" x2="121.68" y2="187.63"/><line class="cls-2" x1="126.88" y1="188.88" x2="126.88" y2="187.63"/><line class="cls-2" x1="131.39" y1="188.88" x2="131.39" y2="187.63"/><line class="cls-2" x1="135.37" y1="188.88" x2="135.37" y2="187.63"/><line class="cls-2" x1="162.33" y1="188.88" x2="162.33" y2="187.63"/><line class="cls-2" x1="176.02" y1="188.88" x2="176.02" y2="187.63"/><line class="cls-2" x1="185.73" y1="188.88" x2="185.73" y2="187.63"/><line class="cls-2" x1="199.42" y1="188.88" x2="199.42" y2="187.63"/><line class="cls-2" x1="204.63" y1="188.88" x2="204.63" y2="187.63"/><line class="cls-2" x1="209.14" y1="188.88" x2="209.14" y2="187.63"/><line class="cls-2" x1="213.11" y1="188.88" x2="213.11" y2="187.63"/><line class="cls-2" x1="240.07" y1="188.88" x2="240.07" y2="187.63"/><line class="cls-2" x1="253.76" y1="188.88" x2="253.76" y2="187.63"/><line class="cls-2" x1="9.79" y1="188.88" x2="260" y2="188.88"/><path d="M259.36,188.88l-.79-1.3,0,0,2.12.84,2.21.49-2.21.48-2.12.84,0,0Z"/><line class="cls-2" x1="14.77" y1="188.88" x2="18.03" y2="188.88"/><line class="cls-2" x1="14.77" y1="181.62" x2="16.73" y2="181.62"/><line class="cls-2" x1="14.77" y1="174.36" x2="16.73" y2="174.36"/><line class="cls-2" x1="14.77" y1="167.1" x2="16.73" y2="167.1"/><line class="cls-2" x1="14.77" y1="159.84" x2="18.03" y2="159.84"/><text class="cls-3" transform="translate(0 162.09)">$0.02$</text><line class="cls-2" x1="14.77" y1="152.58" x2="16.73" y2="152.58"/><line class="cls-2" x1="14.77" y1="145.33" x2="16.73" y2="145.33"/><line class="cls-2" x1="14.77" y1="138.07" x2="16.73" y2="138.07"/><line class="cls-2" x1="14.77" y1="130.81" x2="18.03" y2="130.81"/><text class="cls-3" transform="translate(0 133.06)">$0.04$</text><line class="cls-2" x1="14.77" y1="123.55" x2="16.73" y2="123.55"/><line class="cls-2" x1="14.77" y1="116.3" x2="16.73" y2="116.3"/><line class="cls-2" x1="14.77" y1="109.04" x2="16.73" y2="109.04"/><line class="cls-2" x1="14.77" y1="101.78" x2="18.03" y2="101.78"/><text class="cls-3" transform="translate(0 104.03)">$0.06$</text><line class="cls-2" x1="14.77" y1="94.52" x2="16.73" y2="94.52"/><line class="cls-2" x1="14.77" y1="87.26" x2="16.73" y2="87.26"/><line class="cls-2" x1="14.77" y1="80.01" x2="16.73" y2="80.01"/><text/><text class="cls-3" transform="translate(0 74.99)">$0.08$</text><line class="cls-2" x1="14.77" y1="65.49" x2="16.73" y2="65.49"/><line class="cls-2" x1="14.77" y1="58.23" x2="16.73" y2="58.23"/><line class="cls-2" x1="14.77" y1="50.97" x2="16.73" y2="50.97"/><line class="cls-2" x1="14.77" y1="43.71" x2="18.03" y2="43.71"/><text class="cls-3" transform="translate(0 45.96)">$0.10$</text><line class="cls-2" x1="14.77" y1="36.46" x2="16.73" y2="36.46"/><line class="cls-2" x1="14.77" y1="29.2" x2="16.73" y2="29.2"/><line class="cls-2" x1="14.77" y1="21.94" x2="16.73" y2="21.94"/><line class="cls-2" x1="14.77" y1="14.68" x2="18.03" y2="14.68"/><text class="cls-3" transform="translate(0 16.93)">$0.12$</text><line class="cls-2" x1="14.77" y1="7.42" x2="16.73" y2="7.42"/><line class="cls-2" x1="14.77" y1="192.62" x2="14.77" y2="2.93"/><path d="M14.77,3.58l-1.29.79,0,0,.84-2.12L14.77,0c.17.74.33,1.47.49,2.21l.84,2.12,0,0Z"/><circle class="cls-4" cx="24.3" cy="18.44" r="1.78"/><circle class="cls-4" cx="24.44" cy="15.04" r="1.78"/><circle class="cls-4" cx="78.82" cy="157.43" r="1.78"/><circle class="cls-4" cx="107.99" cy="174.36" r="1.78"/><circle class="cls-4" cx="170.29" cy="181.62" r="1.78"/><circle class="cls-4" cx="171.72" cy="183.68" r="1.78"/><circle class="cls-4" cx="191.71" cy="187.27" r="1.78"/><circle class="cls-4" cx="253.76" cy="188.88" r="1.78"/><circle class="cls-4" cx="252.03" cy="188.48" r="1.78"/><text class="cls-3" transform="translate(60.27 197.75)">$10^4$</text><text class="cls-3" transform="translate(212.22 197.86)">$10^6$</text><text class="cls-3" transform="translate(135.37 197.75)">$10^5$</text><text class="cls-3" transform="translate(183.41 197.75)">$5\cdot 10^5$</text><line class="cls-5" x1="12.98" y1="187.27" x2="191.98" y2="187.27"/><path class="cls-6" d="M191.91,188.62a1.36,1.36,0,1,0-1.35-1.35A1.35,1.35,0,0,0,191.91,188.62Z"/></g></g></svg>