<svg xmlns="http://www.w3.org/2000/svg" viewBox="0 0 383.59 205.59"><defs><style>.cls-1,.cls-2,.cls-3{fill:none;}.cls-1,.cls-6{stroke:#a67c52;}.cls-1,.cls-2,.cls-5,.cls-6{stroke-linecap:square;stroke-width:1.15px;}.cls-1,.cls-2,.cls-3,.cls-5,.cls-6{stroke-miterlimit:3.25;}.cls-2,.cls-5{stroke:#c1272d;}.cls-3{stroke:#000;stroke-width:0.36px;}.cls-4{font-size:6.48px;font-family:ArialMT, Arial;}.cls-5{fill:#c1272d;}.cls-6{fill:#a67c52;}.cls-7{font-size:12px;font-family:MyriadPro-Regular, Myriad Pro;}.cls-8{letter-spacing:-0.01em;}.cls-9{letter-spacing:0em;}.cls-10{letter-spacing:-0.01em;}.cls-11{letter-spacing:0em;}.cls-12{letter-spacing:-0.01em;}</style></defs><g id="Livello_2" data-name="Livello 2"><g id="Livello_1-2" data-name="Livello 1"><polyline class="cls-1" points="254.07 171.17 206.57 167.56 159.07 163.04 135.32 160.39 87.82 154.4 40.32 148.52"/><polyline class="cls-2" points="254.07 171.17 206.57 135.84 159.07 102.9 135.32 86.44 87.82 53.71 40.32 22.91"/><line class="cls-3" x1="16.57" y1="195.46" x2="16.57" y2="192.23"/><line class="cls-3" x1="28.45" y1="195.46" x2="28.45" y2="193.52"/><line class="cls-3" x1="40.32" y1="195.46" x2="40.32" y2="193.52"/><line class="cls-3" x1="52.2" y1="195.46" x2="52.2" y2="193.52"/><line class="cls-3" x1="64.07" y1="195.46" x2="64.07" y2="192.23"/><text class="cls-4" transform="translate(59.57 203.49)">0.2</text><line class="cls-3" x1="75.95" y1="195.46" x2="75.95" y2="193.52"/><line class="cls-3" x1="87.82" y1="195.46" x2="87.82" y2="193.52"/><line class="cls-3" x1="99.7" y1="195.46" x2="99.7" y2="193.52"/><line class="cls-3" x1="111.57" y1="195.46" x2="111.57" y2="192.23"/><text class="cls-4" transform="translate(107.07 203.49)">0.4</text><line class="cls-3" x1="123.45" y1="195.46" x2="123.45" y2="193.52"/><line class="cls-3" x1="135.32" y1="195.46" x2="135.32" y2="193.52"/><line class="cls-3" x1="147.2" y1="195.46" x2="147.2" y2="193.52"/><line class="cls-3" x1="159.07" y1="195.46" x2="159.07" y2="192.23"/><text class="cls-4" transform="translate(154.57 203.49)">0.6</text><line class="cls-3" x1="170.95" y1="195.46" x2="170.95" y2="193.52"/><line class="cls-3" x1="182.82" y1="195.46" x2="182.82" y2="193.52"/><line class="cls-3" x1="194.7" y1="195.46" x2="194.7" y2="193.52"/><line class="cls-3" x1="206.57" y1="195.46" x2="206.57" y2="192.23"/><text class="cls-4" transform="translate(202.07 203.49)">0.8</text><line class="cls-3" x1="218.45" y1="195.46" x2="218.45" y2="193.52"/><line class="cls-3" x1="230.32" y1="195.46" x2="230.32" y2="193.52"/><line class="cls-3" x1="242.2" y1="195.46" x2="242.2" y2="193.52"/><line class="cls-3" x1="254.07" y1="195.46" x2="254.07" y2="192.23"/><text class="cls-4" transform="translate(249.57 203.49)">1.0</text><line class="cls-3" x1="11.63" y1="195.3" x2="263.29" y2="195.3"/><path d="M262.64,195.3l-.79-1.3,0,0,2.12.84,2.21.49-2.21.49-2.12.84,0,0Z"/><line class="cls-3" x1="16.57" y1="195.46" x2="19.81" y2="195.46"/><line class="cls-3" x1="16.57" y1="189.04" x2="18.52" y2="189.04"/><line class="cls-3" x1="16.57" y1="182.63" x2="18.52" y2="182.63"/><line class="cls-3" x1="16.57" y1="176.2" x2="18.52" y2="176.2"/><line class="cls-3" x1="16.57" y1="169.79" x2="18.52" y2="169.79"/><line class="cls-3" x1="16.57" y1="163.36" x2="19.81" y2="163.36"/><text class="cls-4" transform="translate(0 165.61)">1000</text><line class="cls-3" x1="16.57" y1="156.95" x2="18.52" y2="156.95"/><line class="cls-3" x1="16.57" y1="150.53" x2="18.52" y2="150.53"/><line class="cls-3" x1="16.57" y1="144.11" x2="18.52" y2="144.11"/><line class="cls-3" x1="16.57" y1="137.69" x2="18.52" y2="137.69"/><line class="cls-3" x1="16.57" y1="131.27" x2="19.81" y2="131.27"/><text class="cls-4" transform="translate(0 133.52)">2000</text><line class="cls-3" x1="16.57" y1="124.85" x2="18.52" y2="124.85"/><line class="cls-3" x1="16.57" y1="118.43" x2="18.52" y2="118.43"/><line class="cls-3" x1="16.57" y1="112.01" x2="18.52" y2="112.01"/><line class="cls-3" x1="16.57" y1="105.59" x2="18.52" y2="105.59"/><line class="cls-3" x1="16.57" y1="99.17" x2="19.81" y2="99.17"/><text class="cls-4" transform="translate(0 101.42)">3000</text><line class="cls-3" x1="16.57" y1="92.75" x2="18.52" y2="92.75"/><line class="cls-3" x1="16.57" y1="86.33" x2="18.52" y2="86.33"/><line class="cls-3" x1="16.57" y1="79.91" x2="18.52" y2="79.91"/><line class="cls-3" x1="16.57" y1="73.49" x2="18.52" y2="73.49"/><line class="cls-3" x1="16.57" y1="67.08" x2="19.81" y2="67.08"/><text class="cls-4" transform="translate(0 69.32)">4000</text><line class="cls-3" x1="16.57" y1="60.65" x2="18.52" y2="60.65"/><line class="cls-3" x1="16.57" y1="54.24" x2="18.52" y2="54.24"/><line class="cls-3" x1="16.57" y1="47.81" x2="18.52" y2="47.81"/><line class="cls-3" x1="16.57" y1="41.4" x2="18.52" y2="41.4"/><line class="cls-3" x1="16.57" y1="34.98" x2="19.81" y2="34.98"/><text class="cls-4" transform="translate(0 37.22)">5000</text><text/><line class="cls-3" x1="16.57" y1="28.56" x2="18.52" y2="28.56"/><line class="cls-3" x1="16.57" y1="22.14" x2="18.52" y2="22.14"/><line class="cls-3" x1="16.57" y1="15.72" x2="18.52" y2="15.72"/><line class="cls-3" x1="16.72" y1="199.17" x2="16.72" y2="8.5"/><path d="M16.72,9.14l-1.3.79,0,0,.84-2.12c.16-.74.33-1.47.49-2.21l.48,2.21L18,9.89l0,0Z"/><circle class="cls-5" cx="40.32" cy="22.91" r="1.3"/><circle class="cls-5" cx="87.43" cy="53.38" r="1.3"/><circle class="cls-5" cx="134.93" cy="86.24" r="1.3"/><circle class="cls-5" cx="159.07" cy="102.9" r="1.3"/><circle class="cls-5" cx="206.18" cy="135.51" r="1.3"/><circle class="cls-5" cx="254.07" cy="171.17" r="1.3"/><circle class="cls-6" cx="206.18" cy="167.52" r="1.11"/><circle class="cls-6" cx="158.87" cy="162.98" r="1.11"/><circle class="cls-6" cx="134.81" cy="160.37" r="1.11"/><circle class="cls-6" cx="87.82" cy="154.34" r="1.11"/><circle class="cls-6" cx="40.32" cy="148.47" r="1.11"/><text class="cls-7" transform="translate(60.79 29.67)">$C_{22}$</text><text class="cls-7" transform="translate(56.6 140.74)">$C_{11}$</text><text class="cls-7" transform="translate(269.19 200.42)">$\ope<tspan class="cls-8" x="29.68" y="0">r</tspan><tspan class="cls-9" x="33.54" y="0">a</tspan><tspan class="cls-10" x="39.28" y="0">t</tspan><tspan x="43.18" y="0">o</tspan><tspan class="cls-11" x="49.76" y="0">r</tspan><tspan x="53.74" y="0">name</tspan><tspan class="cls-12" x="82.2" y="0">{</tspan><tspan x="85.48" y="0">AxR}$</tspan></text></g></g></svg>