<svg xmlns="http://www.w3.org/2000/svg" viewBox="0 0 259.02 200.03"><defs><style>.cls-1,.cls-2{fill:none;}.cls-1,.cls-4{stroke:#a67c52;stroke-linecap:square;stroke-width:1.15px;}.cls-1,.cls-2,.cls-4{stroke-miterlimit:3.25;}.cls-2{stroke:#000;stroke-width:0.36px;}.cls-3{font-size:6.48px;font-family:ArialMT, Arial;}.cls-4{fill:#a67c52;}</style></defs><g id="Livello_2" data-name="Livello 2"><g id="Livello_1-2" data-name="Livello 1"><polyline class="cls-1" points="254.07 17.35 229.32 30.62 179.82 57.16 155.07 70.43 105.57 96.97 70.92 115.55 41.22 131.48 21.42 142.1"/><line class="cls-2" x1="21.42" y1="189.9" x2="21.42" y2="187.96"/><line class="cls-2" x1="31.32" y1="189.9" x2="31.32" y2="186.67"/><text class="cls-3" transform="translate(24.11 197.93)">2000</text><line class="cls-2" x1="41.22" y1="189.9" x2="41.22" y2="187.96"/><line class="cls-2" x1="51.12" y1="189.9" x2="51.12" y2="187.96"/><line class="cls-2" x1="61.02" y1="189.9" x2="61.02" y2="187.96"/><line class="cls-2" x1="70.92" y1="189.9" x2="70.92" y2="187.96"/><line class="cls-2" x1="80.82" y1="189.9" x2="80.82" y2="186.67"/><text class="cls-3" transform="translate(73.61 197.93)">3000</text><line class="cls-2" x1="90.72" y1="189.9" x2="90.72" y2="187.96"/><line class="cls-2" x1="100.62" y1="189.9" x2="100.62" y2="187.96"/><line class="cls-2" x1="110.52" y1="189.9" x2="110.52" y2="187.96"/><line class="cls-2" x1="120.42" y1="189.9" x2="120.42" y2="187.96"/><line class="cls-2" x1="130.32" y1="189.9" x2="130.32" y2="186.67"/><text class="cls-3" transform="translate(123.11 197.93)">4000</text><line class="cls-2" x1="140.22" y1="189.9" x2="140.22" y2="187.96"/><line class="cls-2" x1="150.12" y1="189.9" x2="150.12" y2="187.96"/><line class="cls-2" x1="160.02" y1="189.9" x2="160.02" y2="187.96"/><line class="cls-2" x1="169.92" y1="189.9" x2="169.92" y2="187.96"/><line class="cls-2" x1="179.82" y1="189.9" x2="179.82" y2="186.67"/><text class="cls-3" transform="translate(172.61 197.93)">5000</text><line class="cls-2" x1="189.72" y1="189.9" x2="189.72" y2="187.96"/><line class="cls-2" x1="199.62" y1="189.9" x2="199.62" y2="187.96"/><line class="cls-2" x1="209.52" y1="189.9" x2="209.52" y2="187.96"/><line class="cls-2" x1="219.42" y1="189.9" x2="219.42" y2="187.96"/><line class="cls-2" x1="229.32" y1="189.9" x2="229.32" y2="186.67"/><text class="cls-3" transform="translate(222.11 197.93)">6000</text><line class="cls-2" x1="239.22" y1="189.9" x2="239.22" y2="187.96"/><line class="cls-2" x1="249.12" y1="189.9" x2="249.12" y2="187.96"/><line class="cls-2" x1="11.63" y1="189.9" x2="256.09" y2="189.9"/><path d="M255.44,189.9l-.79-1.3,0,0,2.12.84,2.21.48-2.21.49-2.12.84,0,0Z"/><line class="cls-2" x1="16.57" y1="189.9" x2="19.81" y2="189.9"/><line class="cls-2" x1="16.57" y1="181.13" x2="18.52" y2="181.13"/><line class="cls-2" x1="16.57" y1="172.36" x2="18.52" y2="172.36"/><line class="cls-2" x1="16.57" y1="163.59" x2="18.52" y2="163.59"/><line class="cls-2" x1="16.57" y1="154.82" x2="19.81" y2="154.82"/><text class="cls-3" transform="translate(3.6 157.07)">200</text><line class="cls-2" x1="16.57" y1="146.05" x2="18.52" y2="146.05"/><line class="cls-2" x1="16.57" y1="137.28" x2="18.52" y2="137.28"/><line class="cls-2" x1="16.57" y1="128.51" x2="18.52" y2="128.51"/><line class="cls-2" x1="16.57" y1="119.74" x2="19.81" y2="119.74"/><text class="cls-3" transform="translate(3.6 121.99)">400</text><line class="cls-2" x1="16.57" y1="110.97" x2="18.52" y2="110.97"/><line class="cls-2" x1="16.57" y1="102.2" x2="18.52" y2="102.2"/><line class="cls-2" x1="16.57" y1="93.43" x2="18.52" y2="93.43"/><line class="cls-2" x1="16.57" y1="84.66" x2="19.81" y2="84.66"/><text class="cls-3" transform="translate(3.6 86.91)">600</text><line class="cls-2" x1="16.57" y1="75.89" x2="18.52" y2="75.89"/><line class="cls-2" x1="16.57" y1="67.12" x2="18.52" y2="67.12"/><line class="cls-2" x1="16.57" y1="58.35" x2="18.52" y2="58.35"/><line class="cls-2" x1="16.57" y1="49.58" x2="19.81" y2="49.58"/><text class="cls-3" transform="translate(3.6 51.83)">800</text><line class="cls-2" x1="16.57" y1="40.81" x2="18.52" y2="40.81"/><line class="cls-2" x1="16.57" y1="32.04" x2="18.52" y2="32.04"/><line class="cls-2" x1="16.57" y1="23.27" x2="18.52" y2="23.27"/><line class="cls-2" x1="16.57" y1="14.5" x2="19.81" y2="14.5"/><text class="cls-3" transform="translate(0 16.75)">1000</text><line class="cls-2" x1="16.57" y1="193.61" x2="16.57" y2="2.93"/><path d="M16.57,3.58l-1.29.79,0,0,.84-2.12L16.57,0c.17.74.33,1.47.49,2.21l.84,2.12,0,0Z"/><circle class="cls-4" cx="22.33" cy="142.1" r="1.64"/><circle class="cls-4" cx="41.22" cy="131.53" r="1.64"/><circle class="cls-4" cx="70.23" cy="115.69" r="1.64"/><circle class="cls-4" cx="104.88" cy="97.58" r="1.64"/><circle class="cls-4" cx="154.38" cy="71.04" r="1.64"/><circle class="cls-4" cx="179.09" cy="57.77" r="1.64"/><circle class="cls-4" cx="228.63" cy="31.22" r="1.64"/><circle class="cls-4" cx="254.07" cy="17.35" r="1.64"/></g></g></svg>